<svg width="2570" height="1512" xmlns="http://www.w3.org/2000/svg" xmlns:xlink="http://www.w3.org/1999/xlink" overflow="hidden"><defs><clipPath id="clip0"><rect x="0" y="0" width="2570" height="1512"/></clipPath></defs><g clip-path="url(#clip0)"><rect x="0" y="0" width="2570" height="1512.17" fill="#FFFFFF"/><path d="M295.993 1231.41C176.549 1010.14 485.546 611.648 986.158 341.347 1486.77 71.0457 1989.42 31.2934 2108.87 252.558 2228.31 473.822 1919.31 872.315 1418.7 1142.62 918.09 1412.92 415.436 1452.67 295.993 1231.41Z" stroke="#1F4E79" stroke-width="3.00007" stroke-linejoin="round" stroke-miterlimit="10" fill="#BDD7EE" fill-rule="evenodd" fill-opacity="0.501961"/><path d="M552.5 801.088C552.5 769.328 578.02 743.582 609.5 743.582 640.98 743.582 666.5 769.328 666.5 801.088 666.5 832.848 640.98 858.595 609.5 858.595 578.02 858.595 552.5 832.848 552.5 801.088Z" stroke="#2E75B6" stroke-width="3" stroke-linejoin="round" stroke-miterlimit="10" stroke-dasharray="12 9 3 9" fill="#9DC3E6" fill-rule="evenodd" fill-opacity="0.501961"/><path d="M666.5 801.088C666.5 769.328 692.244 743.582 724 743.582 755.756 743.582 781.5 769.328 781.5 801.088 781.5 832.848 755.756 858.595 724 858.595 692.244 858.595 666.5 832.848 666.5 801.088Z" stroke="#2E75B6" stroke-width="3" stroke-linejoin="round" stroke-miterlimit="10" stroke-dasharray="12 9 3 9" fill="#9DC3E6" fill-rule="evenodd" fill-opacity="0.501961"/><path d="M781.5 801.088C781.5 769.328 807.244 743.582 839 743.582 870.756 743.582 896.5 769.328 896.5 801.088 896.5 832.848 870.756 858.595 839 858.595 807.244 858.595 781.5 832.848 781.5 801.088Z" stroke="#2E75B6" stroke-width="3" stroke-linejoin="round" stroke-miterlimit="10" stroke-dasharray="12 9 3 9" fill="#9DC3E6" fill-rule="evenodd" fill-opacity="0.501961"/><path d="M899.5 801.088C899.5 769.328 925.244 743.582 957 743.582 988.756 743.582 1014.5 769.328 1014.5 801.088 1014.5 832.848 988.756 858.595 957 858.595 925.244 858.595 899.5 832.848 899.5 801.088Z" stroke="#2E75B6" stroke-width="3" stroke-linejoin="round" stroke-miterlimit="10" stroke-dasharray="12 9 3 9" fill="#9DC3E6" fill-rule="evenodd" fill-opacity="0.501961"/><path d="M1014.5 801.088C1014.5 769.328 1040.24 743.582 1072 743.582 1103.76 743.582 1129.5 769.328 1129.5 801.088 1129.5 832.848 1103.76 858.595 1072 858.595 1040.24 858.595 1014.5 832.848 1014.5 801.088Z" stroke="#2E75B6" stroke-width="3" stroke-linejoin="round" stroke-miterlimit="10" stroke-dasharray="12 9 3 9" fill="#9DC3E6" fill-rule="evenodd" fill-opacity="0.501961"/><path d="M1129.5 801.088C1129.5 769.328 1155.02 743.582 1186.5 743.582 1217.98 743.582 1243.5 769.328 1243.5 801.088 1243.5 832.848 1217.98 858.595 1186.5 858.595 1155.02 858.595 1129.5 832.848 1129.5 801.088Z" stroke="#2E75B6" stroke-width="3" stroke-linejoin="round" stroke-miterlimit="10" stroke-dasharray="12 9 3 9" fill="#9DC3E6" fill-rule="evenodd" fill-opacity="0.501961"/><path d="M1243.5 801.088C1243.5 769.328 1269.24 743.582 1301 743.582 1332.76 743.582 1358.5 769.328 1358.5 801.088 1358.5 832.848 1332.76 858.595 1301 858.595 1269.24 858.595 1243.5 832.848 1243.5 801.088Z" stroke="#2E75B6" stroke-width="3" stroke-linejoin="round" stroke-miterlimit="10" stroke-dasharray="12 9 3 9" fill="#9DC3E6" fill-rule="evenodd" fill-opacity="0.501961"/><path d="M1358.5 801.088C1358.5 769.328 1384.24 743.582 1416 743.582 1447.76 743.582 1473.5 769.328 1473.5 801.088 1473.5 832.848 1447.76 858.595 1416 858.595 1384.24 858.595 1358.5 832.848 1358.5 801.088Z" stroke="#2E75B6" stroke-width="3" stroke-linejoin="round" stroke-miterlimit="10" stroke-dasharray="12 9 3 9" fill="#9DC3E6" fill-rule="evenodd" fill-opacity="0.501961"/><path d="M1473.5 801.088C1473.5 769.328 1499.02 743.582 1530.5 743.582 1561.98 743.582 1587.5 769.328 1587.5 801.088 1587.5 832.848 1561.98 858.595 1530.5 858.595 1499.02 858.595 1473.5 832.848 1473.5 801.088Z" stroke="#2E75B6" stroke-width="3" stroke-linejoin="round" stroke-miterlimit="10" stroke-dasharray="12 9 3 9" fill="#9DC3E6" fill-rule="evenodd" fill-opacity="0.501961"/><path d="M1591.5 801.088C1591.5 769.328 1617.24 743.582 1649 743.582 1680.76 743.582 1706.5 769.328 1706.5 801.088 1706.5 832.848 1680.76 858.595 1649 858.595 1617.24 858.595 1591.5 832.848 1591.5 801.088Z" stroke="#2E75B6" stroke-width="3" stroke-linejoin="round" stroke-miterlimit="10" stroke-dasharray="12 9 3 9" fill="#9DC3E6" fill-rule="evenodd" fill-opacity="0.501961"/><path d="M609.5 902.099C609.5 870.34 635.244 844.593 667 844.593 698.756 844.593 724.5 870.34 724.5 902.099 724.5 933.859 698.756 959.606 667 959.606 635.244 959.606 609.5 933.859 609.5 902.099Z" stroke="#2E75B6" stroke-width="3" stroke-linejoin="round" stroke-miterlimit="10" stroke-dasharray="12 9 3 9" fill="#9DC3E6" fill-rule="evenodd" fill-opacity="0.501961"/><path d="M724.5 902.099C724.5 870.34 750.02 844.593 781.5 844.593 812.98 844.593 838.5 870.34 838.5 902.099 838.5 933.859 812.98 959.606 781.5 959.606 750.02 959.606 724.5 933.859 724.5 902.099Z" stroke="#2E75B6" stroke-width="3" stroke-linejoin="round" stroke-miterlimit="10" stroke-dasharray="12 9 3 9" fill="#9DC3E6" fill-rule="evenodd" fill-opacity="0.501961"/><path d="M838.5 902.099C838.5 870.34 864.244 844.593 896 844.593 927.756 844.593 953.5 870.34 953.5 902.099 953.5 933.859 927.756 959.606 896 959.606 864.244 959.606 838.5 933.859 838.5 902.099Z" stroke="#2E75B6" stroke-width="3" stroke-linejoin="round" stroke-miterlimit="10" stroke-dasharray="12 9 3 9" fill="#9DC3E6" fill-rule="evenodd" fill-opacity="0.501961"/><path d="M957.5 902.099C957.5 870.34 983.02 844.593 1014.5 844.593 1045.98 844.593 1071.5 870.34 1071.5 902.099 1071.5 933.859 1045.98 959.606 1014.5 959.606 983.02 959.606 957.5 933.859 957.5 902.099Z" stroke="#2E75B6" stroke-width="3" stroke-linejoin="round" stroke-miterlimit="10" stroke-dasharray="12 9 3 9" fill="#9DC3E6" fill-rule="evenodd" fill-opacity="0.501961"/><path d="M1071.5 902.099C1071.5 870.34 1097.24 844.593 1129 844.593 1160.76 844.593 1186.5 870.34 1186.5 902.099 1186.5 933.859 1160.76 959.606 1129 959.606 1097.24 959.606 1071.5 933.859 1071.5 902.099Z" stroke="#2E75B6" stroke-width="3" stroke-linejoin="round" stroke-miterlimit="10" stroke-dasharray="12 9 3 9" fill="#9DC3E6" fill-rule="evenodd" fill-opacity="0.501961"/><path d="M1186.5 902.099C1186.5 870.34 1212.24 844.593 1244 844.593 1275.76 844.593 1301.5 870.34 1301.5 902.099 1301.5 933.859 1275.76 959.606 1244 959.606 1212.24 959.606 1186.5 933.859 1186.5 902.099Z" stroke="#2E75B6" stroke-width="3" stroke-linejoin="round" stroke-miterlimit="10" stroke-dasharray="12 9 3 9" fill="#9DC3E6" fill-rule="evenodd" fill-opacity="0.501961"/><path d="M1301.5 902.099C1301.5 870.34 1327.02 844.593 1358.5 844.593 1389.98 844.593 1415.5 870.34 1415.5 902.099 1415.5 933.859 1389.98 959.606 1358.5 959.606 1327.02 959.606 1301.5 933.859 1301.5 902.099Z" stroke="#2E75B6" stroke-width="3" stroke-linejoin="round" stroke-miterlimit="10" stroke-dasharray="12 9 3 9" fill="#9DC3E6" fill-rule="evenodd" fill-opacity="0.501961"/><path d="M1415.5 902.099C1415.5 870.34 1441.24 844.593 1473 844.593 1504.76 844.593 1530.5 870.34 1530.5 902.099 1530.5 933.859 1504.76 959.606 1473 959.606 1441.24 959.606 1415.5 933.859 1415.5 902.099Z" stroke="#2E75B6" stroke-width="3" stroke-linejoin="round" stroke-miterlimit="10" stroke-dasharray="12 9 3 9" fill="#9DC3E6" fill-rule="evenodd" fill-opacity="0.501961"/><path d="M1530.5 902.099C1530.5 870.34 1556.24 844.593 1588 844.593 1619.76 844.593 1645.5 870.34 1645.5 902.099 1645.5 933.859 1619.76 959.606 1588 959.606 1556.24 959.606 1530.5 933.859 1530.5 902.099Z" stroke="#2E75B6" stroke-width="3" stroke-linejoin="round" stroke-miterlimit="10" stroke-dasharray="12 9 3 9" fill="#9DC3E6" fill-rule="evenodd" fill-opacity="0.501961"/><path d="M1648.5 902.099C1648.5 870.34 1674.24 844.593 1706 844.593 1737.76 844.593 1763.5 870.34 1763.5 902.099 1763.5 933.859 1737.76 959.606 1706 959.606 1674.24 959.606 1648.5 933.859 1648.5 902.099Z" stroke="#2E75B6" stroke-width="3" stroke-linejoin="round" stroke-miterlimit="10" stroke-dasharray="12 9 3 9" fill="#9DC3E6" fill-rule="evenodd" fill-opacity="0.501961"/><path d="M609.5 699.077C609.5 667.317 635.244 641.571 667 641.571 698.756 641.571 724.5 667.317 724.5 699.077 724.5 730.837 698.756 756.583 667 756.583 635.244 756.583 609.5 730.837 609.5 699.077Z" stroke="#2E75B6" stroke-width="3" stroke-linejoin="round" stroke-miterlimit="10" stroke-dasharray="12 9 3 9" fill="#9DC3E6" fill-rule="evenodd" fill-opacity="0.501961"/><path d="M724.5 699.077C724.5 667.317 750.02 641.571 781.5 641.571 812.98 641.571 838.5 667.317 838.5 699.077 838.5 730.837 812.98 756.583 781.5 756.583 750.02 756.583 724.5 730.837 724.5 699.077Z" stroke="#2E75B6" stroke-width="3" stroke-linejoin="round" stroke-miterlimit="10" stroke-dasharray="12 9 3 9" fill="#9DC3E6" fill-rule="evenodd" fill-opacity="0.501961"/><path d="M838.5 699.077C838.5 667.317 864.244 641.571 896 641.571 927.756 641.571 953.5 667.317 953.5 699.077 953.5 730.837 927.756 756.583 896 756.583 864.244 756.583 838.5 730.837 838.5 699.077Z" stroke="#2E75B6" stroke-width="3" stroke-linejoin="round" stroke-miterlimit="10" stroke-dasharray="12 9 3 9" fill="#9DC3E6" fill-rule="evenodd" fill-opacity="0.501961"/><path d="M957.5 699.077C957.5 667.317 983.02 641.571 1014.5 641.571 1045.98 641.571 1071.5 667.317 1071.5 699.077 1071.5 730.837 1045.98 756.583 1014.5 756.583 983.02 756.583 957.5 730.837 957.5 699.077Z" stroke="#2E75B6" stroke-width="3" stroke-linejoin="round" stroke-miterlimit="10" stroke-dasharray="12 9 3 9" fill="#9DC3E6" fill-rule="evenodd" fill-opacity="0.501961"/><path d="M1071.5 699.077C1071.5 667.317 1097.24 641.571 1129 641.571 1160.76 641.571 1186.5 667.317 1186.5 699.077 1186.5 730.837 1160.76 756.583 1129 756.583 1097.24 756.583 1071.5 730.837 1071.5 699.077Z" stroke="#2E75B6" stroke-width="3" stroke-linejoin="round" stroke-miterlimit="10" stroke-dasharray="12 9 3 9" fill="#9DC3E6" fill-rule="evenodd" fill-opacity="0.501961"/><path d="M1186.5 699.077C1186.5 667.317 1212.24 641.571 1244 641.571 1275.76 641.571 1301.5 667.317 1301.5 699.077 1301.5 730.837 1275.76 756.583 1244 756.583 1212.24 756.583 1186.5 730.837 1186.5 699.077Z" stroke="#2E75B6" stroke-width="3" stroke-linejoin="round" stroke-miterlimit="10" stroke-dasharray="12 9 3 9" fill="#9DC3E6" fill-rule="evenodd" fill-opacity="0.501961"/><path d="M1301.5 699.077C1301.5 667.317 1327.02 641.571 1358.5 641.571 1389.98 641.571 1415.5 667.317 1415.5 699.077 1415.5 730.837 1389.98 756.583 1358.5 756.583 1327.02 756.583 1301.5 730.837 1301.5 699.077Z" stroke="#2E75B6" stroke-width="3" stroke-linejoin="round" stroke-miterlimit="10" stroke-dasharray="12 9 3 9" fill="#9DC3E6" fill-rule="evenodd" fill-opacity="0.501961"/><path d="M1415.5 699.077C1415.5 667.317 1441.24 641.571 1473 641.571 1504.76 641.571 1530.5 667.317 1530.5 699.077 1530.5 730.837 1504.76 756.583 1473 756.583 1441.24 756.583 1415.5 730.837 1415.5 699.077Z" stroke="#2E75B6" stroke-width="3" stroke-linejoin="round" stroke-miterlimit="10" stroke-dasharray="12 9 3 9" fill="#9DC3E6" fill-rule="evenodd" fill-opacity="0.501961"/><path d="M1530.5 699.077C1530.5 667.317 1556.24 641.571 1588 641.571 1619.76 641.571 1645.5 667.317 1645.5 699.077 1645.5 730.837 1619.76 756.583 1588 756.583 1556.24 756.583 1530.5 730.837 1530.5 699.077Z" stroke="#2E75B6" stroke-width="3" stroke-linejoin="round" stroke-miterlimit="10" stroke-dasharray="12 9 3 9" fill="#9DC3E6" fill-rule="evenodd" fill-opacity="0.501961"/><path d="M1648.5 699.077C1648.5 667.317 1674.24 641.571 1706 641.571 1737.76 641.571 1763.5 667.317 1763.5 699.077 1763.5 730.837 1737.76 756.583 1706 756.583 1674.24 756.583 1648.5 730.837 1648.5 699.077Z" stroke="#2E75B6" stroke-width="3" stroke-linejoin="round" stroke-miterlimit="10" stroke-dasharray="12 9 3 9" fill="#9DC3E6" fill-rule="evenodd" fill-opacity="0.501961"/><path d="M666.5 1001.61C666.5 970.127 692.244 944.604 724 944.604 755.756 944.604 781.5 970.127 781.5 1001.61 781.5 1033.09 755.756 1058.62 724 1058.62 692.244 1058.62 666.5 1033.09 666.5 1001.61Z" stroke="#2E75B6" stroke-width="3" stroke-linejoin="round" stroke-miterlimit="10" stroke-dasharray="12 9 3 9" fill="#9DC3E6" fill-rule="evenodd" fill-opacity="0.501961"/><path d="M781.5 1001.61C781.5 970.127 807.244 944.604 839 944.604 870.756 944.604 896.5 970.127 896.5 1001.61 896.5 1033.09 870.756 1058.62 839 1058.62 807.244 1058.62 781.5 1033.09 781.5 1001.61Z" stroke="#2E75B6" stroke-width="3" stroke-linejoin="round" stroke-miterlimit="10" stroke-dasharray="12 9 3 9" fill="#9DC3E6" fill-rule="evenodd" fill-opacity="0.501961"/><path d="M896.5 1001.61C896.5 970.127 922.02 944.604 953.5 944.604 984.98 944.604 1010.5 970.127 1010.5 1001.61 1010.5 1033.09 984.98 1058.62 953.5 1058.62 922.02 1058.62 896.5 1033.09 896.5 1001.61Z" stroke="#2E75B6" stroke-width="3" stroke-linejoin="round" stroke-miterlimit="10" stroke-dasharray="12 9 3 9" fill="#9DC3E6" fill-rule="evenodd" fill-opacity="0.501961"/><path d="M1014.5 1001.61C1014.5 970.127 1040.24 944.604 1072 944.604 1103.76 944.604 1129.5 970.127 1129.5 1001.61 1129.5 1033.09 1103.76 1058.62 1072 1058.62 1040.24 1058.62 1014.5 1033.09 1014.5 1001.61Z" stroke="#2E75B6" stroke-width="3" stroke-linejoin="round" stroke-miterlimit="10" stroke-dasharray="12 9 3 9" fill="#9DC3E6" fill-rule="evenodd" fill-opacity="0.501961"/><path d="M1129.5 1001.61C1129.5 970.127 1155.02 944.604 1186.5 944.604 1217.98 944.604 1243.5 970.127 1243.5 1001.61 1243.5 1033.09 1217.98 1058.62 1186.5 1058.62 1155.02 1058.62 1129.5 1033.09 1129.5 1001.61Z" stroke="#2E75B6" stroke-width="3" stroke-linejoin="round" stroke-miterlimit="10" stroke-dasharray="12 9 3 9" fill="#9DC3E6" fill-rule="evenodd" fill-opacity="0.501961"/><path d="M1243.5 1001.61C1243.5 970.127 1269.24 944.604 1301 944.604 1332.76 944.604 1358.5 970.127 1358.5 1001.61 1358.5 1033.09 1332.76 1058.62 1301 1058.62 1269.24 1058.62 1243.5 1033.09 1243.5 1001.61Z" stroke="#2E75B6" stroke-width="3" stroke-linejoin="round" stroke-miterlimit="10" stroke-dasharray="12 9 3 9" fill="#9DC3E6" fill-rule="evenodd" fill-opacity="0.501961"/><path d="M1358.5 1001.61C1358.5 970.127 1384.24 944.604 1416 944.604 1447.76 944.604 1473.5 970.127 1473.5 1001.61 1473.5 1033.09 1447.76 1058.62 1416 1058.62 1384.24 1058.62 1358.5 1033.09 1358.5 1001.61Z" stroke="#2E75B6" stroke-width="3" stroke-linejoin="round" stroke-miterlimit="10" stroke-dasharray="12 9 3 9" fill="#9DC3E6" fill-rule="evenodd" fill-opacity="0.501961"/><path d="M1473.5 1001.61C1473.5 970.127 1499.02 944.604 1530.5 944.604 1561.98 944.604 1587.5 970.127 1587.5 1001.61 1587.5 1033.09 1561.98 1058.62 1530.5 1058.62 1499.02 1058.62 1473.5 1033.09 1473.5 1001.61Z" stroke="#2E75B6" stroke-width="3" stroke-linejoin="round" stroke-miterlimit="10" stroke-dasharray="12 9 3 9" fill="#9DC3E6" fill-rule="evenodd" fill-opacity="0.501961"/><path d="M665.5 598.566C665.5 567.082 691.244 541.56 723 541.56 754.756 541.56 780.5 567.082 780.5 598.566 780.5 630.05 754.756 655.572 723 655.572 691.244 655.572 665.5 630.05 665.5 598.566Z" stroke="#2E75B6" stroke-width="3" stroke-linejoin="round" stroke-miterlimit="10" stroke-dasharray="12 9 3 9" fill="#9DC3E6" fill-rule="evenodd" fill-opacity="0.501961"/><path d="M780.5 598.566C780.5 567.082 806.02 541.56 837.5 541.56 868.98 541.56 894.5 567.082 894.5 598.566 894.5 630.05 868.98 655.572 837.5 655.572 806.02 655.572 780.5 630.05 780.5 598.566Z" stroke="#2E75B6" stroke-width="3" stroke-linejoin="round" stroke-miterlimit="10" stroke-dasharray="12 9 3 9" fill="#9DC3E6" fill-rule="evenodd" fill-opacity="0.501961"/><path d="M894.5 598.566C894.5 567.082 920.244 541.56 952 541.56 983.756 541.56 1009.5 567.082 1009.5 598.566 1009.5 630.05 983.756 655.572 952 655.572 920.244 655.572 894.5 630.05 894.5 598.566Z" stroke="#2E75B6" stroke-width="3" stroke-linejoin="round" stroke-miterlimit="10" stroke-dasharray="12 9 3 9" fill="#9DC3E6" fill-rule="evenodd" fill-opacity="0.501961"/><path d="M1013.5 598.566C1013.5 567.082 1039.02 541.56 1070.5 541.56 1101.98 541.56 1127.5 567.082 1127.5 598.566 1127.5 630.05 1101.98 655.572 1070.5 655.572 1039.02 655.572 1013.5 630.05 1013.5 598.566Z" stroke="#2E75B6" stroke-width="3" stroke-linejoin="round" stroke-miterlimit="10" stroke-dasharray="12 9 3 9" fill="#9DC3E6" fill-rule="evenodd" fill-opacity="0.501961"/><path d="M1127.5 598.566C1127.5 567.082 1153.24 541.56 1185 541.56 1216.76 541.56 1242.5 567.082 1242.5 598.566 1242.5 630.05 1216.76 655.572 1185 655.572 1153.24 655.572 1127.5 630.05 1127.5 598.566Z" stroke="#2E75B6" stroke-width="3" stroke-linejoin="round" stroke-miterlimit="10" stroke-dasharray="12 9 3 9" fill="#9DC3E6" fill-rule="evenodd" fill-opacity="0.501961"/><path d="M1242.5 598.566C1242.5 567.082 1268.24 541.56 1300 541.56 1331.76 541.56 1357.5 567.082 1357.5 598.566 1357.5 630.05 1331.76 655.572 1300 655.572 1268.24 655.572 1242.5 630.05 1242.5 598.566Z" stroke="#2E75B6" stroke-width="3" stroke-linejoin="round" stroke-miterlimit="10" stroke-dasharray="12 9 3 9" fill="#9DC3E6" fill-rule="evenodd" fill-opacity="0.501961"/><path d="M1357.5 598.566C1357.5 567.082 1383.02 541.56 1414.5 541.56 1445.98 541.56 1471.5 567.082 1471.5 598.566 1471.5 630.05 1445.98 655.572 1414.5 655.572 1383.02 655.572 1357.5 630.05 1357.5 598.566Z" stroke="#2E75B6" stroke-width="3" stroke-linejoin="round" stroke-miterlimit="10" stroke-dasharray="12 9 3 9" fill="#9DC3E6" fill-rule="evenodd" fill-opacity="0.501961"/><path d="M1471.5 598.566C1471.5 567.082 1497.24 541.56 1529 541.56 1560.76 541.56 1586.5 567.082 1586.5 598.566 1586.5 630.05 1560.76 655.572 1529 655.572 1497.24 655.572 1471.5 630.05 1471.5 598.566Z" stroke="#2E75B6" stroke-width="3" stroke-linejoin="round" stroke-miterlimit="10" stroke-dasharray="12 9 3 9" fill="#9DC3E6" fill-rule="evenodd" fill-opacity="0.501961"/><path d="M1586.5 598.566C1586.5 567.082 1612.24 541.56 1644 541.56 1675.76 541.56 1701.5 567.082 1701.5 598.566 1701.5 630.05 1675.76 655.572 1644 655.572 1612.24 655.572 1586.5 630.05 1586.5 598.566Z" stroke="#2E75B6" stroke-width="3" stroke-linejoin="round" stroke-miterlimit="10" stroke-dasharray="12 9 3 9" fill="#9DC3E6" fill-rule="evenodd" fill-opacity="0.501961"/><path d="M1704.5 598.566C1704.5 567.082 1730.24 541.56 1762 541.56 1793.76 541.56 1819.5 567.082 1819.5 598.566 1819.5 630.05 1793.76 655.572 1762 655.572 1730.24 655.572 1704.5 630.05 1704.5 598.566Z" stroke="#2E75B6" stroke-width="3" stroke-linejoin="round" stroke-miterlimit="10" stroke-dasharray="12 9 3 9" fill="#9DC3E6" fill-rule="evenodd" fill-opacity="0.501961"/><path d="M722.5 496.555C722.5 465.071 748.244 439.548 780 439.548 811.756 439.548 837.5 465.071 837.5 496.555 837.5 528.038 811.756 553.561 780 553.561 748.244 553.561 722.5 528.038 722.5 496.555Z" stroke="#2E75B6" stroke-width="3" stroke-linejoin="round" stroke-miterlimit="10" stroke-dasharray="12 9 3 9" fill="#9DC3E6" fill-rule="evenodd" fill-opacity="0.501961"/><path d="M837.5 496.555C837.5 465.071 863.244 439.548 895 439.548 926.756 439.548 952.5 465.071 952.5 496.555 952.5 528.038 926.756 553.561 895 553.561 863.244 553.561 837.5 528.038 837.5 496.555Z" stroke="#2E75B6" stroke-width="3" stroke-linejoin="round" stroke-miterlimit="10" stroke-dasharray="12 9 3 9" fill="#9DC3E6" fill-rule="evenodd" fill-opacity="0.501961"/><path d="M952.5 496.555C952.5 465.071 978.02 439.548 1009.5 439.548 1040.98 439.548 1066.5 465.071 1066.5 496.555 1066.5 528.038 1040.98 553.561 1009.5 553.561 978.02 553.561 952.5 528.038 952.5 496.555Z" stroke="#2E75B6" stroke-width="3" stroke-linejoin="round" stroke-miterlimit="10" stroke-dasharray="12 9 3 9" fill="#9DC3E6" fill-rule="evenodd" fill-opacity="0.501961"/><path d="M1070.5 496.555C1070.5 465.071 1096.24 439.548 1128 439.548 1159.76 439.548 1185.5 465.071 1185.5 496.555 1185.5 528.038 1159.76 553.561 1128 553.561 1096.24 553.561 1070.5 528.038 1070.5 496.555Z" stroke="#2E75B6" stroke-width="3" stroke-linejoin="round" stroke-miterlimit="10" stroke-dasharray="12 9 3 9" fill="#9DC3E6" fill-rule="evenodd" fill-opacity="0.501961"/><path d="M1185.5 496.555C1185.5 465.071 1211.02 439.548 1242.5 439.548 1273.98 439.548 1299.5 465.071 1299.5 496.555 1299.5 528.038 1273.98 553.561 1242.5 553.561 1211.02 553.561 1185.5 528.038 1185.5 496.555Z" stroke="#2E75B6" stroke-width="3" stroke-linejoin="round" stroke-miterlimit="10" stroke-dasharray="12 9 3 9" fill="#9DC3E6" fill-rule="evenodd" fill-opacity="0.501961"/><path d="M1299.5 496.555C1299.5 465.071 1325.24 439.548 1357 439.548 1388.76 439.548 1414.5 465.071 1414.5 496.555 1414.5 528.038 1388.76 553.561 1357 553.561 1325.24 553.561 1299.5 528.038 1299.5 496.555Z" stroke="#2E75B6" stroke-width="3" stroke-linejoin="round" stroke-miterlimit="10" stroke-dasharray="12 9 3 9" fill="#9DC3E6" fill-rule="evenodd" fill-opacity="0.501961"/><path d="M1414.5 496.555C1414.5 465.071 1440.24 439.548 1472 439.548 1503.76 439.548 1529.5 465.071 1529.5 496.555 1529.5 528.038 1503.76 553.561 1472 553.561 1440.24 553.561 1414.5 528.038 1414.5 496.555Z" stroke="#2E75B6" stroke-width="3" stroke-linejoin="round" stroke-miterlimit="10" stroke-dasharray="12 9 3 9" fill="#9DC3E6" fill-rule="evenodd" fill-opacity="0.501961"/><path d="M1529.5 496.555C1529.5 465.071 1555.02 439.548 1586.5 439.548 1617.98 439.548 1643.5 465.071 1643.5 496.555 1643.5 528.038 1617.98 553.561 1586.5 553.561 1555.02 553.561 1529.5 528.038 1529.5 496.555Z" stroke="#2E75B6" stroke-width="3" stroke-linejoin="round" stroke-miterlimit="10" stroke-dasharray="12 9 3 9" fill="#9DC3E6" fill-rule="evenodd" fill-opacity="0.501961"/><path d="M1643.5 496.555C1643.5 465.071 1669.24 439.548 1701 439.548 1732.76 439.548 1758.5 465.071 1758.5 496.555 1758.5 528.038 1732.76 553.561 1701 553.561 1669.24 553.561 1643.5 528.038 1643.5 496.555Z" stroke="#2E75B6" stroke-width="3" stroke-linejoin="round" stroke-miterlimit="10" stroke-dasharray="12 9 3 9" fill="#9DC3E6" fill-rule="evenodd" fill-opacity="0.501961"/><path d="M1762.5 496.555C1762.5 465.071 1788.02 439.548 1819.5 439.548 1850.98 439.548 1876.5 465.071 1876.5 496.555 1876.5 528.038 1850.98 553.561 1819.5 553.561 1788.02 553.561 1762.5 528.038 1762.5 496.555Z" stroke="#2E75B6" stroke-width="3" stroke-linejoin="round" stroke-miterlimit="10" stroke-dasharray="12 9 3 9" fill="#9DC3E6" fill-rule="evenodd" fill-opacity="0.501961"/><path d="M899.5 394.043C899.5 362.284 925.244 336.537 957 336.537 988.756 336.537 1014.5 362.284 1014.5 394.043 1014.5 425.803 988.756 451.55 957 451.55 925.244 451.55 899.5 425.803 899.5 394.043Z" stroke="#2E75B6" stroke-width="3" stroke-linejoin="round" stroke-miterlimit="10" stroke-dasharray="12 9 3 9" fill="#9DC3E6" fill-rule="evenodd" fill-opacity="0.501961"/><path d="M1014.5 394.043C1014.5 362.284 1040.24 336.537 1072 336.537 1103.76 336.537 1129.5 362.284 1129.5 394.043 1129.5 425.803 1103.76 451.55 1072 451.55 1040.24 451.55 1014.5 425.803 1014.5 394.043Z" stroke="#2E75B6" stroke-width="3" stroke-linejoin="round" stroke-miterlimit="10" stroke-dasharray="12 9 3 9" fill="#9DC3E6" fill-rule="evenodd" fill-opacity="0.501961"/><path d="M1129.5 394.043C1129.5 362.284 1155.02 336.537 1186.5 336.537 1217.98 336.537 1243.5 362.284 1243.5 394.043 1243.5 425.803 1217.98 451.55 1186.5 451.55 1155.02 451.55 1129.5 425.803 1129.5 394.043Z" stroke="#2E75B6" stroke-width="3" stroke-linejoin="round" stroke-miterlimit="10" stroke-dasharray="12 9 3 9" fill="#9DC3E6" fill-rule="evenodd" fill-opacity="0.501961"/><path d="M1247.5 394.043C1247.5 362.284 1273.24 336.537 1305 336.537 1336.76 336.537 1362.5 362.284 1362.5 394.043 1362.5 425.803 1336.76 451.55 1305 451.55 1273.24 451.55 1247.5 425.803 1247.5 394.043Z" stroke="#2E75B6" stroke-width="3" stroke-linejoin="round" stroke-miterlimit="10" stroke-dasharray="12 9 3 9" fill="#9DC3E6" fill-rule="evenodd" fill-opacity="0.501961"/><path d="M1362.5 394.043C1362.5 362.284 1388.02 336.537 1419.5 336.537 1450.98 336.537 1476.5 362.284 1476.5 394.043 1476.5 425.803 1450.98 451.55 1419.5 451.55 1388.02 451.55 1362.5 425.803 1362.5 394.043Z" stroke="#2E75B6" stroke-width="3" stroke-linejoin="round" stroke-miterlimit="10" stroke-dasharray="12 9 3 9" fill="#9DC3E6" fill-rule="evenodd" fill-opacity="0.501961"/><path d="M1476.5 394.043C1476.5 362.284 1502.24 336.537 1534 336.537 1565.76 336.537 1591.5 362.284 1591.5 394.043 1591.5 425.803 1565.76 451.55 1534 451.55 1502.24 451.55 1476.5 425.803 1476.5 394.043Z" stroke="#2E75B6" stroke-width="3" stroke-linejoin="round" stroke-miterlimit="10" stroke-dasharray="12 9 3 9" fill="#9DC3E6" fill-rule="evenodd" fill-opacity="0.501961"/><path d="M1591.5 394.043C1591.5 362.284 1617.24 336.537 1649 336.537 1680.76 336.537 1706.5 362.284 1706.5 394.043 1706.5 425.803 1680.76 451.55 1649 451.55 1617.24 451.55 1591.5 425.803 1591.5 394.043Z" stroke="#2E75B6" stroke-width="3" stroke-linejoin="round" stroke-miterlimit="10" stroke-dasharray="12 9 3 9" fill="#9DC3E6" fill-rule="evenodd" fill-opacity="0.501961"/><path d="M1706.5 394.043C1706.5 362.284 1732.02 336.537 1763.5 336.537 1794.98 336.537 1820.5 362.284 1820.5 394.043 1820.5 425.803 1794.98 451.55 1763.5 451.55 1732.02 451.55 1706.5 425.803 1706.5 394.043Z" stroke="#2E75B6" stroke-width="3" stroke-linejoin="round" stroke-miterlimit="10" stroke-dasharray="12 9 3 9" fill="#9DC3E6" fill-rule="evenodd" fill-opacity="0.501961"/><path d="M1820.5 394.043C1820.5 362.284 1846.24 336.537 1878 336.537 1909.76 336.537 1935.5 362.284 1935.5 394.043 1935.5 425.803 1909.76 451.55 1878 451.55 1846.24 451.55 1820.5 425.803 1820.5 394.043Z" stroke="#2E75B6" stroke-width="3" stroke-linejoin="round" stroke-miterlimit="10" stroke-dasharray="12 9 3 9" fill="#9DC3E6" fill-rule="evenodd" fill-opacity="0.501961"/><path d="M1939.5 394.043C1939.5 362.284 1965.02 336.537 1996.5 336.537 2027.98 336.537 2053.5 362.284 2053.5 394.043 2053.5 425.803 2027.98 451.55 1996.5 451.55 1965.02 451.55 1939.5 425.803 1939.5 394.043Z" stroke="#2E75B6" stroke-width="3" stroke-linejoin="round" stroke-miterlimit="10" stroke-dasharray="12 9 3 9" fill="#9DC3E6" fill-rule="evenodd" fill-opacity="0.501961"/><path d="M1072.5 292.032C1072.5 260.272 1098.24 234.526 1130 234.526 1161.76 234.526 1187.5 260.272 1187.5 292.032 1187.5 323.792 1161.76 349.539 1130 349.539 1098.24 349.539 1072.5 323.792 1072.5 292.032Z" stroke="#2E75B6" stroke-width="3" stroke-linejoin="round" stroke-miterlimit="10" stroke-dasharray="12 9 3 9" fill="#9DC3E6" fill-rule="evenodd" fill-opacity="0.501961"/><path d="M1187.5 292.032C1187.5 260.272 1213.24 234.526 1245 234.526 1276.76 234.526 1302.5 260.272 1302.5 292.032 1302.5 323.792 1276.76 349.539 1245 349.539 1213.24 349.539 1187.5 323.792 1187.5 292.032Z" stroke="#2E75B6" stroke-width="3" stroke-linejoin="round" stroke-miterlimit="10" stroke-dasharray="12 9 3 9" fill="#9DC3E6" fill-rule="evenodd" fill-opacity="0.501961"/><path d="M1302.5 292.032C1302.5 260.272 1328.02 234.526 1359.5 234.526 1390.98 234.526 1416.5 260.272 1416.5 292.032 1416.5 323.792 1390.98 349.539 1359.5 349.539 1328.02 349.539 1302.5 323.792 1302.5 292.032Z" stroke="#2E75B6" stroke-width="3" stroke-linejoin="round" stroke-miterlimit="10" stroke-dasharray="12 9 3 9" fill="#9DC3E6" fill-rule="evenodd" fill-opacity="0.501961"/><path d="M1420.5 292.032C1420.5 260.272 1446.24 234.526 1478 234.526 1509.76 234.526 1535.5 260.272 1535.5 292.032 1535.5 323.792 1509.76 349.539 1478 349.539 1446.24 349.539 1420.5 323.792 1420.5 292.032Z" stroke="#2E75B6" stroke-width="3" stroke-linejoin="round" stroke-miterlimit="10" stroke-dasharray="12 9 3 9" fill="#9DC3E6" fill-rule="evenodd" fill-opacity="0.501961"/><path d="M1535.5 292.032C1535.5 260.272 1561.02 234.526 1592.5 234.526 1623.98 234.526 1649.5 260.272 1649.5 292.032 1649.5 323.792 1623.98 349.539 1592.5 349.539 1561.02 349.539 1535.5 323.792 1535.5 292.032Z" stroke="#2E75B6" stroke-width="3" stroke-linejoin="round" stroke-miterlimit="10" stroke-dasharray="12 9 3 9" fill="#9DC3E6" fill-rule="evenodd" fill-opacity="0.501961"/><path d="M1649.5 292.032C1649.5 260.272 1675.24 234.526 1707 234.526 1738.76 234.526 1764.5 260.272 1764.5 292.032 1764.5 323.792 1738.76 349.539 1707 349.539 1675.24 349.539 1649.5 323.792 1649.5 292.032Z" stroke="#2E75B6" stroke-width="3" stroke-linejoin="round" stroke-miterlimit="10" stroke-dasharray="12 9 3 9" fill="#9DC3E6" fill-rule="evenodd" fill-opacity="0.501961"/><path d="M1764.5 292.032C1764.5 260.272 1790.24 234.526 1822 234.526 1853.76 234.526 1879.5 260.272 1879.5 292.032 1879.5 323.792 1853.76 349.539 1822 349.539 1790.24 349.539 1764.5 323.792 1764.5 292.032Z" stroke="#2E75B6" stroke-width="3" stroke-linejoin="round" stroke-miterlimit="10" stroke-dasharray="12 9 3 9" fill="#9DC3E6" fill-rule="evenodd" fill-opacity="0.501961"/><path d="M1879.5 292.032C1879.5 260.272 1905.02 234.526 1936.5 234.526 1967.98 234.526 1993.5 260.272 1993.5 292.032 1993.5 323.792 1967.98 349.539 1936.5 349.539 1905.02 349.539 1879.5 323.792 1879.5 292.032Z" stroke="#2E75B6" stroke-width="3" stroke-linejoin="round" stroke-miterlimit="10" stroke-dasharray="12 9 3 9" fill="#9DC3E6" fill-rule="evenodd" fill-opacity="0.501961"/><path d="M1993.5 292.032C1993.5 260.272 2019.24 234.526 2051 234.526 2082.76 234.526 2108.5 260.272 2108.5 292.032 2108.5 323.792 2082.76 349.539 2051 349.539 2019.24 349.539 1993.5 323.792 1993.5 292.032Z" stroke="#2E75B6" stroke-width="3" stroke-linejoin="round" stroke-miterlimit="10" stroke-dasharray="12 9 3 9" fill="#9DC3E6" fill-rule="evenodd" fill-opacity="0.501961"/><path d="M722.5 1101.12C722.5 1069.36 748.244 1043.62 780 1043.62 811.756 1043.62 837.5 1069.36 837.5 1101.12 837.5 1132.88 811.756 1158.63 780 1158.63 748.244 1158.63 722.5 1132.88 722.5 1101.12Z" stroke="#2E75B6" stroke-width="3" stroke-linejoin="round" stroke-miterlimit="10" stroke-dasharray="12 9 3 9" fill="#9DC3E6" fill-rule="evenodd" fill-opacity="0.501961"/><path d="M837.5 1101.12C837.5 1069.36 863.244 1043.62 895 1043.62 926.756 1043.62 952.5 1069.36 952.5 1101.12 952.5 1132.88 926.756 1158.63 895 1158.63 863.244 1158.63 837.5 1132.88 837.5 1101.12Z" stroke="#2E75B6" stroke-width="3" stroke-linejoin="round" stroke-miterlimit="10" stroke-dasharray="12 9 3 9" fill="#9DC3E6" fill-rule="evenodd" fill-opacity="0.501961"/><path d="M952.5 1101.12C952.5 1069.36 978.02 1043.62 1009.5 1043.62 1040.98 1043.62 1066.5 1069.36 1066.5 1101.12 1066.5 1132.88 1040.98 1158.63 1009.5 1158.63 978.02 1158.63 952.5 1132.88 952.5 1101.12Z" stroke="#2E75B6" stroke-width="3" stroke-linejoin="round" stroke-miterlimit="10" stroke-dasharray="12 9 3 9" fill="#9DC3E6" fill-rule="evenodd" fill-opacity="0.501961"/><path d="M1070.5 1101.12C1070.5 1069.36 1096.24 1043.62 1128 1043.62 1159.76 1043.62 1185.5 1069.36 1185.5 1101.12 1185.5 1132.88 1159.76 1158.63 1128 1158.63 1096.24 1158.63 1070.5 1132.88 1070.5 1101.12Z" stroke="#2E75B6" stroke-width="3" stroke-linejoin="round" stroke-miterlimit="10" stroke-dasharray="12 9 3 9" fill="#9DC3E6" fill-rule="evenodd" fill-opacity="0.501961"/><path d="M1185.5 1101.12C1185.5 1069.36 1211.02 1043.62 1242.5 1043.62 1273.98 1043.62 1299.5 1069.36 1299.5 1101.12 1299.5 1132.88 1273.98 1158.63 1242.5 1158.63 1211.02 1158.63 1185.5 1132.88 1185.5 1101.12Z" stroke="#2E75B6" stroke-width="3" stroke-linejoin="round" stroke-miterlimit="10" stroke-dasharray="12 9 3 9" fill="#9DC3E6" fill-rule="evenodd" fill-opacity="0.501961"/><path d="M1299.5 1101.12C1299.5 1069.36 1325.24 1043.62 1357 1043.62 1388.76 1043.62 1414.5 1069.36 1414.5 1101.12 1414.5 1132.88 1388.76 1158.63 1357 1158.63 1325.24 1158.63 1299.5 1132.88 1299.5 1101.12Z" stroke="#2E75B6" stroke-width="3" stroke-linejoin="round" stroke-miterlimit="10" stroke-dasharray="12 9 3 9" fill="#9DC3E6" fill-rule="evenodd" fill-opacity="0.501961"/><path d="M893.5 1201.63C893.5 1170.15 919.02 1144.63 950.5 1144.63 981.98 1144.63 1007.5 1170.15 1007.5 1201.63 1007.5 1233.12 981.98 1258.64 950.5 1258.64 919.02 1258.64 893.5 1233.12 893.5 1201.63Z" stroke="#2E75B6" stroke-width="3" stroke-linejoin="round" stroke-miterlimit="10" stroke-dasharray="12 9 3 9" fill="#9DC3E6" fill-rule="evenodd" fill-opacity="0.501961"/><path d="M1007.5 1201.63C1007.5 1170.15 1033.24 1144.63 1065 1144.63 1096.76 1144.63 1122.5 1170.15 1122.5 1201.63 1122.5 1233.12 1096.76 1258.64 1065 1258.64 1033.24 1258.64 1007.5 1233.12 1007.5 1201.63Z" stroke="#2E75B6" stroke-width="3" stroke-linejoin="round" stroke-miterlimit="10" stroke-dasharray="12 9 3 9" fill="#9DC3E6" fill-rule="evenodd" fill-opacity="0.501961"/><path d="M1122.5 1201.63C1122.5 1170.15 1148.24 1144.63 1180 1144.63 1211.76 1144.63 1237.5 1170.15 1237.5 1201.63 1237.5 1233.12 1211.76 1258.64 1180 1258.64 1148.24 1258.64 1122.5 1233.12 1122.5 1201.63Z" stroke="#2E75B6" stroke-width="3" stroke-linejoin="round" stroke-miterlimit="10" stroke-dasharray="12 9 3 9" fill="#9DC3E6" fill-rule="evenodd" fill-opacity="0.501961"/><path d="M1244.5 191.021C1244.5 159.261 1270.24 133.515 1302 133.515 1333.76 133.515 1359.5 159.261 1359.5 191.021 1359.5 222.781 1333.76 248.527 1302 248.527 1270.24 248.527 1244.5 222.781 1244.5 191.021Z" stroke="#2E75B6" stroke-width="3" stroke-linejoin="round" stroke-miterlimit="10" stroke-dasharray="12 9 3 9" fill="#9DC3E6" fill-rule="evenodd" fill-opacity="0.501961"/><path d="M1359.5 191.021C1359.5 159.261 1385.24 133.515 1417 133.515 1448.76 133.515 1474.5 159.261 1474.5 191.021 1474.5 222.781 1448.76 248.527 1417 248.527 1385.24 248.527 1359.5 222.781 1359.5 191.021Z" stroke="#2E75B6" stroke-width="3" stroke-linejoin="round" stroke-miterlimit="10" stroke-dasharray="12 9 3 9" fill="#9DC3E6" fill-rule="evenodd" fill-opacity="0.501961"/><path d="M1477.5 191.021C1477.5 159.261 1503.24 133.515 1535 133.515 1566.76 133.515 1592.5 159.261 1592.5 191.021 1592.5 222.781 1566.76 248.527 1535 248.527 1503.24 248.527 1477.5 222.781 1477.5 191.021Z" stroke="#2E75B6" stroke-width="3" stroke-linejoin="round" stroke-miterlimit="10" stroke-dasharray="12 9 3 9" fill="#9DC3E6" fill-rule="evenodd" fill-opacity="0.501961"/><path d="M1592.5 191.021C1592.5 159.261 1618.24 133.515 1650 133.515 1681.76 133.515 1707.5 159.261 1707.5 191.021 1707.5 222.781 1681.76 248.527 1650 248.527 1618.24 248.527 1592.5 222.781 1592.5 191.021Z" stroke="#2E75B6" stroke-width="3" stroke-linejoin="round" stroke-miterlimit="10" stroke-dasharray="12 9 3 9" fill="#9DC3E6" fill-rule="evenodd" fill-opacity="0.501961"/><path d="M1707.5 191.021C1707.5 159.261 1733.02 133.515 1764.5 133.515 1795.98 133.515 1821.5 159.261 1821.5 191.021 1821.5 222.781 1795.98 248.527 1764.5 248.527 1733.02 248.527 1707.5 222.781 1707.5 191.021Z" stroke="#2E75B6" stroke-width="3" stroke-linejoin="round" stroke-miterlimit="10" stroke-dasharray="12 9 3 9" fill="#9DC3E6" fill-rule="evenodd" fill-opacity="0.501961"/><path d="M1821.5 191.021C1821.5 159.261 1847.24 133.515 1879 133.515 1910.76 133.515 1936.5 159.261 1936.5 191.021 1936.5 222.781 1910.76 248.527 1879 248.527 1847.24 248.527 1821.5 222.781 1821.5 191.021Z" stroke="#2E75B6" stroke-width="3" stroke-linejoin="round" stroke-miterlimit="10" stroke-dasharray="12 9 3 9" fill="#9DC3E6" fill-rule="evenodd" fill-opacity="0.501961"/><path d="M1936.5 191.021C1936.5 159.261 1962.24 133.515 1994 133.515 2025.76 133.515 2051.5 159.261 2051.5 191.021 2051.5 222.781 2025.76 248.527 1994 248.527 1962.24 248.527 1936.5 222.781 1936.5 191.021Z" stroke="#2E75B6" stroke-width="3" stroke-linejoin="round" stroke-miterlimit="10" stroke-dasharray="12 9 3 9" fill="#9DC3E6" fill-rule="evenodd" fill-opacity="0.501961"/><path d="M779.5 1204.13C779.5 1172.37 805.244 1146.63 837 1146.63 868.756 1146.63 894.5 1172.37 894.5 1204.13 894.5 1235.89 868.756 1261.64 837 1261.64 805.244 1261.64 779.5 1235.89 779.5 1204.13Z" stroke="#2E75B6" stroke-width="3" stroke-linejoin="round" stroke-miterlimit="10" stroke-dasharray="12 9 3 9" fill="#9DC3E6" fill-rule="evenodd" fill-opacity="0.501961"/><path d="M1704.5 800.088C1704.5 768.328 1730.24 742.582 1762 742.582 1793.76 742.582 1819.5 768.328 1819.5 800.088 1819.5 831.848 1793.76 857.595 1762 857.595 1730.24 857.595 1704.5 831.848 1704.5 800.088Z" stroke="#2E75B6" stroke-width="3" stroke-linejoin="round" stroke-miterlimit="10" stroke-dasharray="12 9 3 9" fill="#9DC3E6" fill-rule="evenodd" fill-opacity="0.501961"/><path d="M1762.5 697.577C1762.5 666.093 1788.02 640.571 1819.5 640.571 1850.98 640.571 1876.5 666.093 1876.5 697.577 1876.5 729.061 1850.98 754.583 1819.5 754.583 1788.02 754.583 1762.5 729.061 1762.5 697.577Z" stroke="#2E75B6" stroke-width="3" stroke-linejoin="round" stroke-miterlimit="10" stroke-dasharray="12 9 3 9" fill="#9DC3E6" fill-rule="evenodd" fill-opacity="0.501961"/><path d="M1818.5 597.066C1818.5 565.306 1844.02 539.56 1875.5 539.56 1906.98 539.56 1932.5 565.306 1932.5 597.066 1932.5 628.826 1906.98 654.572 1875.5 654.572 1844.02 654.572 1818.5 628.826 1818.5 597.066Z" stroke="#2E75B6" stroke-width="3" stroke-linejoin="round" stroke-miterlimit="10" stroke-dasharray="12 9 3 9" fill="#9DC3E6" fill-rule="evenodd" fill-opacity="0.501961"/><path d="M1875.5 495.055C1875.5 463.295 1901.24 437.548 1933 437.548 1964.76 437.548 1990.5 463.295 1990.5 495.055 1990.5 526.814 1964.76 552.561 1933 552.561 1901.24 552.561 1875.5 526.814 1875.5 495.055Z" stroke="#2E75B6" stroke-width="3" stroke-linejoin="round" stroke-miterlimit="10" stroke-dasharray="12 9 3 9" fill="#9DC3E6" fill-rule="evenodd" fill-opacity="0.501961"/><path d="M494.5 901.099C494.5 869.339 520.02 843.593 551.5 843.593 582.98 843.593 608.5 869.339 608.5 901.099 608.5 932.859 582.98 958.606 551.5 958.606 520.02 958.606 494.5 932.859 494.5 901.099Z" stroke="#2E75B6" stroke-width="3" stroke-linejoin="round" stroke-miterlimit="10" stroke-dasharray="12 9 3 9" fill="#9DC3E6" fill-rule="evenodd" fill-opacity="0.501961"/><path d="M551.5 1002.11C551.5 970.351 577.244 944.604 609 944.604 640.756 944.604 666.5 970.351 666.5 1002.11 666.5 1033.87 640.756 1059.62 609 1059.62 577.244 1059.62 551.5 1033.87 551.5 1002.11Z" stroke="#2E75B6" stroke-width="3" stroke-linejoin="round" stroke-miterlimit="10" stroke-dasharray="12 9 3 9" fill="#9DC3E6" fill-rule="evenodd" fill-opacity="0.501961"/><path d="M608.5 1101.12C608.5 1069.36 634.244 1043.62 666 1043.62 697.756 1043.62 723.5 1069.36 723.5 1101.12 723.5 1132.88 697.756 1158.63 666 1158.63 634.244 1158.63 608.5 1132.88 608.5 1101.12Z" stroke="#2E75B6" stroke-width="3" stroke-linejoin="round" stroke-miterlimit="10" stroke-dasharray="12 9 3 9" fill="#9DC3E6" fill-rule="evenodd" fill-opacity="0.501961"/><path d="M664.5 1201.13C664.5 1169.37 690.244 1143.63 722 1143.63 753.756 1143.63 779.5 1169.37 779.5 1201.13 779.5 1232.89 753.756 1258.64 722 1258.64 690.244 1258.64 664.5 1232.89 664.5 1201.13Z" stroke="#2E75B6" stroke-width="3" stroke-linejoin="round" stroke-miterlimit="10" stroke-dasharray="12 9 3 9" fill="#9DC3E6" fill-rule="evenodd" fill-opacity="0.501961"/><path d="M436.5 1001.61C436.5 970.127 462.244 944.604 494 944.604 525.756 944.604 551.5 970.127 551.5 1001.61 551.5 1033.09 525.756 1058.62 494 1058.62 462.244 1058.62 436.5 1033.09 436.5 1001.61Z" stroke="#2E75B6" stroke-width="3" stroke-linejoin="round" stroke-miterlimit="10" stroke-dasharray="12 9 3 9" fill="#9DC3E6" fill-rule="evenodd" fill-opacity="0.501961"/><path d="M493.5 1102.12C493.5 1070.36 519.244 1044.62 551 1044.62 582.756 1044.62 608.5 1070.36 608.5 1102.12 608.5 1133.88 582.756 1159.63 551 1159.63 519.244 1159.63 493.5 1133.88 493.5 1102.12Z" stroke="#2E75B6" stroke-width="3" stroke-linejoin="round" stroke-miterlimit="10" stroke-dasharray="12 9 3 9" fill="#9DC3E6" fill-rule="evenodd" fill-opacity="0.501961"/><path d="M551.5 1201.63C551.5 1170.15 577.02 1144.63 608.5 1144.63 639.98 1144.63 665.5 1170.15 665.5 1201.63 665.5 1233.12 639.98 1258.64 608.5 1258.64 577.02 1258.64 551.5 1233.12 551.5 1201.63Z" stroke="#2E75B6" stroke-width="3" stroke-linejoin="round" stroke-miterlimit="10" stroke-dasharray="12 9 3 9" fill="#9DC3E6" fill-rule="evenodd" fill-opacity="0.501961"/><path d="M376.5 1102.12C376.5 1070.36 402.244 1044.62 434 1044.62 465.756 1044.62 491.5 1070.36 491.5 1102.12 491.5 1133.88 465.756 1159.63 434 1159.63 402.244 1159.63 376.5 1133.88 376.5 1102.12Z" stroke="#2E75B6" stroke-width="3" stroke-linejoin="round" stroke-miterlimit="10" stroke-dasharray="12 9 3 9" fill="#9DC3E6" fill-rule="evenodd" fill-opacity="0.501961"/><path d="M434.5 1202.13C434.5 1170.37 460.02 1144.63 491.5 1144.63 522.98 1144.63 548.5 1170.37 548.5 1202.13 548.5 1233.89 522.98 1259.64 491.5 1259.64 460.02 1259.64 434.5 1233.89 434.5 1202.13Z" stroke="#2E75B6" stroke-width="3" stroke-linejoin="round" stroke-miterlimit="10" stroke-dasharray="12 9 3 9" fill="#9DC3E6" fill-rule="evenodd" fill-opacity="0.501961"/><path d="M434.5 801.088C434.5 769.328 460.244 743.582 492 743.582 523.756 743.582 549.5 769.328 549.5 801.088 549.5 832.848 523.756 858.595 492 858.595 460.244 858.595 434.5 832.848 434.5 801.088Z" stroke="#2E75B6" stroke-width="3" stroke-linejoin="round" stroke-miterlimit="10" stroke-dasharray="12 9 3 9" fill="#9DC3E6" fill-rule="evenodd" fill-opacity="0.501961"/><path d="M492.5 699.077C492.5 667.317 518.02 641.571 549.5 641.571 580.98 641.571 606.5 667.317 606.5 699.077 606.5 730.837 580.98 756.583 549.5 756.583 518.02 756.583 492.5 730.837 492.5 699.077Z" stroke="#2E75B6" stroke-width="3" stroke-linejoin="round" stroke-miterlimit="10" stroke-dasharray="12 9 3 9" fill="#9DC3E6" fill-rule="evenodd" fill-opacity="0.501961"/><path d="M547.5 598.566C547.5 567.082 573.244 541.56 605 541.56 636.756 541.56 662.5 567.082 662.5 598.566 662.5 630.05 636.756 655.572 605 655.572 573.244 655.572 547.5 630.05 547.5 598.566Z" stroke="#2E75B6" stroke-width="3" stroke-linejoin="round" stroke-miterlimit="10" stroke-dasharray="12 9 3 9" fill="#9DC3E6" fill-rule="evenodd" fill-opacity="0.501961"/><path d="M376.5 901.099C376.5 869.339 402.244 843.593 434 843.593 465.756 843.593 491.5 869.339 491.5 901.099 491.5 932.859 465.756 958.606 434 958.606 402.244 958.606 376.5 932.859 376.5 901.099Z" stroke="#2E75B6" stroke-width="3" stroke-linejoin="round" stroke-miterlimit="10" stroke-dasharray="12 9 3 9" fill="#9DC3E6" fill-rule="evenodd" fill-opacity="0.501961"/><path d="M318.5 1001.61C318.5 970.127 344.244 944.604 376 944.604 407.756 944.604 433.5 970.127 433.5 1001.61 433.5 1033.09 407.756 1058.62 376 1058.62 344.244 1058.62 318.5 1033.09 318.5 1001.61Z" stroke="#2E75B6" stroke-width="3" stroke-linejoin="round" stroke-miterlimit="10" stroke-dasharray="12 9 3 9" fill="#9DC3E6" fill-rule="evenodd" fill-opacity="0.501961"/><path d="M259.5 1102.12C259.5 1070.36 285.244 1044.62 317 1044.62 348.756 1044.62 374.5 1070.36 374.5 1102.12 374.5 1133.88 348.756 1159.63 317 1159.63 285.244 1159.63 259.5 1133.88 259.5 1102.12Z" stroke="#2E75B6" stroke-width="3" stroke-linejoin="round" stroke-miterlimit="10" stroke-dasharray="12 9 3 9" fill="#9DC3E6" fill-rule="evenodd" fill-opacity="0.501961"/><path d="M837.5 1303.14C837.5 1271.38 863.244 1245.64 895 1245.64 926.756 1245.64 952.5 1271.38 952.5 1303.14 952.5 1334.9 926.756 1360.65 895 1360.65 863.244 1360.65 837.5 1334.9 837.5 1303.14Z" stroke="#2E75B6" stroke-width="3" stroke-linejoin="round" stroke-miterlimit="10" stroke-dasharray="12 9 3 9" fill="#9DC3E6" fill-rule="evenodd" fill-opacity="0.501961"/><path d="M952.5 1303.14C952.5 1271.38 978.02 1245.64 1009.5 1245.64 1040.98 1245.64 1066.5 1271.38 1066.5 1303.14 1066.5 1334.9 1040.98 1360.65 1009.5 1360.65 978.02 1360.65 952.5 1334.9 952.5 1303.14Z" stroke="#2E75B6" stroke-width="3" stroke-linejoin="round" stroke-miterlimit="10" stroke-dasharray="12 9 3 9" fill="#9DC3E6" fill-rule="evenodd" fill-opacity="0.501961"/><path d="M723.5 1305.14C723.5 1273.38 749.244 1247.64 781 1247.64 812.756 1247.64 838.5 1273.38 838.5 1305.14 838.5 1336.9 812.756 1362.65 781 1362.65 749.244 1362.65 723.5 1336.9 723.5 1305.14Z" stroke="#2E75B6" stroke-width="3" stroke-linejoin="round" stroke-miterlimit="10" stroke-dasharray="12 9 3 9" fill="#9DC3E6" fill-rule="evenodd" fill-opacity="0.501961"/><path d="M609.5 1302.14C609.5 1270.38 635.02 1244.64 666.5 1244.64 697.98 1244.64 723.5 1270.38 723.5 1302.14 723.5 1333.9 697.98 1359.65 666.5 1359.65 635.02 1359.65 609.5 1333.9 609.5 1302.14Z" stroke="#2E75B6" stroke-width="3" stroke-linejoin="round" stroke-miterlimit="10" stroke-dasharray="12 9 3 9" fill="#9DC3E6" fill-rule="evenodd" fill-opacity="0.501961"/><path d="M495.5 1303.14C495.5 1271.38 521.02 1245.64 552.5 1245.64 583.98 1245.64 609.5 1271.38 609.5 1303.14 609.5 1334.9 583.98 1360.65 552.5 1360.65 521.02 1360.65 495.5 1334.9 495.5 1303.14Z" stroke="#2E75B6" stroke-width="3" stroke-linejoin="round" stroke-miterlimit="10" stroke-dasharray="12 9 3 9" fill="#9DC3E6" fill-rule="evenodd" fill-opacity="0.501961"/><path d="M378.5 1303.64C378.5 1272.16 404.244 1246.64 436 1246.64 467.756 1246.64 493.5 1272.16 493.5 1303.64 493.5 1335.13 467.756 1360.65 436 1360.65 404.244 1360.65 378.5 1335.13 378.5 1303.64Z" stroke="#2E75B6" stroke-width="3" stroke-linejoin="round" stroke-miterlimit="10" stroke-dasharray="12 9 3 9" fill="#9DC3E6" fill-rule="evenodd" fill-opacity="0.501961"/><path d="M317.5 1204.13C317.5 1172.37 343.02 1146.63 374.5 1146.63 405.98 1146.63 431.5 1172.37 431.5 1204.13 431.5 1235.89 405.98 1261.64 374.5 1261.64 343.02 1261.64 317.5 1235.89 317.5 1204.13Z" stroke="#2E75B6" stroke-width="3" stroke-linejoin="round" stroke-miterlimit="10" stroke-dasharray="12 9 3 9" fill="#9DC3E6" fill-rule="evenodd" fill-opacity="0.501961"/><path d="M1994.5 498.555C1994.5 467.071 2020.02 441.549 2051.5 441.549 2082.98 441.549 2108.5 467.071 2108.5 498.555 2108.5 530.039 2082.98 555.561 2051.5 555.561 2020.02 555.561 1994.5 530.039 1994.5 498.555Z" stroke="#2E75B6" stroke-width="3" stroke-linejoin="round" stroke-miterlimit="10" stroke-dasharray="12 9 3 9" fill="#9DC3E6" fill-rule="evenodd" fill-opacity="0.501961"/><path d="M2048.5 396.544C2048.5 365.06 2074.24 339.537 2106 339.537 2137.76 339.537 2163.5 365.06 2163.5 396.544 2163.5 428.027 2137.76 453.55 2106 453.55 2074.24 453.55 2048.5 428.027 2048.5 396.544Z" stroke="#2E75B6" stroke-width="3" stroke-linejoin="round" stroke-miterlimit="10" stroke-dasharray="12 9 3 9" fill="#9DC3E6" fill-rule="evenodd" fill-opacity="0.501961"/><path d="M1817.5 802.089C1817.5 770.329 1843.02 744.582 1874.5 744.582 1905.98 744.582 1931.5 770.329 1931.5 802.089 1931.5 833.848 1905.98 859.595 1874.5 859.595 1843.02 859.595 1817.5 833.848 1817.5 802.089Z" stroke="#2E75B6" stroke-width="3" stroke-linejoin="round" stroke-miterlimit="10" stroke-dasharray="12 9 3 9" fill="#9DC3E6" fill-rule="evenodd" fill-opacity="0.501961"/><path d="M1873.5 701.577C1873.5 670.094 1899.02 644.571 1930.5 644.571 1961.98 644.571 1987.5 670.094 1987.5 701.577 1987.5 733.061 1961.98 758.584 1930.5 758.584 1899.02 758.584 1873.5 733.061 1873.5 701.577Z" stroke="#2E75B6" stroke-width="3" stroke-linejoin="round" stroke-miterlimit="10" stroke-dasharray="12 9 3 9" fill="#9DC3E6" fill-rule="evenodd" fill-opacity="0.501961"/><path d="M1930.5 599.066C1930.5 567.306 1956.24 541.56 1988 541.56 2019.76 541.56 2045.5 567.306 2045.5 599.066 2045.5 630.826 2019.76 656.572 1988 656.572 1956.24 656.572 1930.5 630.826 1930.5 599.066Z" stroke="#2E75B6" stroke-width="3" stroke-linejoin="round" stroke-miterlimit="10" stroke-dasharray="12 9 3 9" fill="#9DC3E6" fill-rule="evenodd" fill-opacity="0.501961"/><path d="M1765.5 900.099C1765.5 868.339 1791.24 842.593 1823 842.593 1854.76 842.593 1880.5 868.339 1880.5 900.099 1880.5 931.859 1854.76 957.606 1823 957.606 1791.24 957.606 1765.5 931.859 1765.5 900.099Z" stroke="#2E75B6" stroke-width="3" stroke-linejoin="round" stroke-miterlimit="10" stroke-dasharray="12 9 3 9" fill="#9DC3E6" fill-rule="evenodd" fill-opacity="0.501961"/><path d="M1590.5 1002.11C1590.5 970.351 1616.02 944.604 1647.5 944.604 1678.98 944.604 1704.5 970.351 1704.5 1002.11 1704.5 1033.87 1678.98 1059.62 1647.5 1059.62 1616.02 1059.62 1590.5 1033.87 1590.5 1002.11Z" stroke="#2E75B6" stroke-width="3" stroke-linejoin="round" stroke-miterlimit="10" stroke-dasharray="12 9 3 9" fill="#9DC3E6" fill-rule="evenodd" fill-opacity="0.501961"/><path d="M1415.5 1103.62C1415.5 1072.14 1441.24 1046.62 1473 1046.62 1504.76 1046.62 1530.5 1072.14 1530.5 1103.62 1530.5 1135.11 1504.76 1160.63 1473 1160.63 1441.24 1160.63 1415.5 1135.11 1415.5 1103.62Z" stroke="#2E75B6" stroke-width="3" stroke-linejoin="round" stroke-miterlimit="10" stroke-dasharray="12 9 3 9" fill="#9DC3E6" fill-rule="evenodd" fill-opacity="0.501961"/><path d="M1236.5 1202.13C1236.5 1170.37 1262.24 1144.63 1294 1144.63 1325.76 1144.63 1351.5 1170.37 1351.5 1202.13 1351.5 1233.89 1325.76 1259.64 1294 1259.64 1262.24 1259.64 1236.5 1233.89 1236.5 1202.13Z" stroke="#2E75B6" stroke-width="3" stroke-linejoin="round" stroke-miterlimit="10" stroke-dasharray="12 9 3 9" fill="#9DC3E6" fill-rule="evenodd" fill-opacity="0.501961"/><path d="M1066.5 1305.64C1066.5 1274.16 1092.24 1248.64 1124 1248.64 1155.76 1248.64 1181.5 1274.16 1181.5 1305.64 1181.5 1337.13 1155.76 1362.65 1124 1362.65 1092.24 1362.65 1066.5 1337.13 1066.5 1305.64Z" stroke="#2E75B6" stroke-width="3" stroke-linejoin="round" stroke-miterlimit="10" stroke-dasharray="12 9 3 9" fill="#9DC3E6" fill-rule="evenodd" fill-opacity="0.501961"/><path d="M838.409 803.647 786.579 513.449 794.454 512.042 846.284 802.24ZM779.407 518.793 787 493.054 803.033 514.573Z" fill="#4472C4"/><path d="M1.56382-3.68164 1188.57 500.517 1185.45 507.88-1.56382 3.68164ZM1188.02 491.589 1205.42 512.016 1178.63 513.678Z" fill="#4472C4" transform="matrix(1 0 0 -1.00011 843 805.105)"/><path d="M842.035 797.644 1342.57 1093.5 1338.5 1100.39 837.965 804.532ZM1343.19 1084.57 1357.75 1107.12 1330.98 1105.24Z" fill="#4472C4"/><path d="M3.10437-2.52248 397.19 482.471 390.981 487.516-3.10437 2.52248ZM400.876 474.321 406.698 500.515 382.25 489.456Z" fill="#4472C4" transform="matrix(-1 0 0 1.00011 842.698 801.088)"/><path d="M0.228262-2.9913 24.1587-1.16521 23.7022 4.8174-0.228262 2.9913ZM42.1065 0.20436 66.0369 2.03045 65.5804 8.01306 41.65 6.18697ZM83.9848 3.40002 107.915 5.22612 107.459 11.2087 83.5282 9.38263ZM125.863 6.59569 149.793 8.42178 149.337 14.4044 125.406 12.5783ZM167.741 9.79135 191.672 11.6174 191.215 17.6 167.285 15.774ZM209.62 12.987 233.55 14.8131 233.093 20.7957 209.163 18.9696ZM251.498 16.1827 275.428 18.0088 274.972 23.9914 251.041 22.1653ZM293.376 19.3783 317.306 21.2044 316.85 27.187 292.919 25.3609ZM335.254 22.574 359.185 24.4001 358.728 30.3827 334.798 28.5566ZM377.132 25.7697 401.063 27.5958 400.606 33.5784 376.676 31.7523ZM419.011 28.9653 442.941 30.7914 442.485 36.774 418.554 34.9479ZM460.889 32.161 484.819 33.9871 484.363 39.9697 460.432 38.1436ZM502.767 35.3567 526.698 37.1827 526.241 43.1653 502.311 41.3393ZM544.646 38.5523 557.678 39.5468 557.222 45.5294 544.189 44.5349ZM555.144 33.336 572.407 43.6795 553.774 51.2838Z" fill="#1F4E79" transform="matrix(1 0 0 -1.00011 843 803.768)"/><path d="M0.0692818-2.9992 24.0629-2.44494 23.9243 3.55345-0.0692818 2.9992ZM42.0581-2.02925 66.0517-1.475 65.9131 4.5234 41.9195 3.96915ZM84.0469-1.05931 108.04-0.505053 107.902 5.49335 83.9083 4.93909ZM126.036-0.0893623 150.029 0.464893 149.891 6.46329 125.897 5.90904ZM168.024 0.880584 192.018 1.43484 191.88 7.43324 167.886 6.87898ZM210.013 1.85053 234.007 2.40478 233.868 8.40318 209.875 7.84893ZM252.002 2.82048 275.996 3.37473 275.857 9.37313 251.863 8.81887ZM293.991 3.79042 317.984 4.34468 317.846 10.3431 293.852 9.78882ZM335.98 4.76037 359.973 5.31462 359.835 11.313 335.841 10.7588ZM377.968 5.73031 401.962 6.28457 401.823 12.283 377.83 11.7287ZM419.957 6.70026 443.951 7.25451 443.812 13.2529 419.819 12.6987ZM461.946 7.6702 485.94 8.22446 485.801 14.2229 461.807 13.6686ZM503.935 8.64015 527.928 9.1944 527.79 15.1928 503.796 14.6385ZM545.924 9.6101 569.917 10.1644 569.779 16.1627 545.785 15.6085ZM587.912 10.58 603.37 10.9371 603.232 16.9355 587.774 16.5784ZM600.51 4.86944 618.297 14.2827 600.094 22.8646Z" fill="#1F4E79" transform="matrix(1 0 0 -1.00011 850 801.371)"/><path d="M846.206 798.095 870.149 799.746 869.737 805.732 845.794 804.082ZM888.107 800.984 912.05 802.635 911.637 808.621 887.694 806.971ZM930.007 803.873 953.951 805.524 953.538 811.51 929.595 809.859ZM971.908 806.762 995.851 808.413 995.438 814.399 971.495 812.748ZM1013.81 809.651 1037.75 811.302 1037.34 817.288 1013.4 815.637ZM1055.71 812.54 1079.65 814.191 1079.24 820.177 1055.3 818.526ZM1097.61 815.429 1121.55 817.08 1121.14 823.066 1097.2 821.415ZM1139.51 818.318 1163.45 819.969 1163.04 825.955 1139.1 824.304ZM1181.41 821.207 1205.35 822.858 1204.94 828.844 1181 827.193ZM1223.31 824.096 1247.25 825.747 1246.84 831.733 1222.9 830.082ZM1265.21 826.985 1289.15 828.636 1288.74 834.622 1264.8 832.971ZM1307.11 829.874 1331.06 831.525 1330.64 837.511 1306.7 835.86ZM1349.01 832.763 1372.96 834.414 1372.54 840.4 1348.6 838.749ZM1390.91 835.652 1405.53 836.66 1405.12 842.646 1390.5 841.638ZM1402.95 830.467 1420.29 840.685 1401.71 848.426Z" fill="#1F4E79"/><path d="M115.188-56.5C111.688-56.5 108.656-54.8021 106.094-51.4062 103.531-48.0104 101.323-42.7604 99.4688-35.6562 97.6146-28.5521 96.6875-22.3958 96.6875-17.1875 96.6875-13.2708 97.3229-10.3438 98.5938-8.40625 99.8646-6.46875 101.875-5.5 104.625-5.5 108.167-5.5 111.24-7.21875 113.844-10.6562 116.448-14.0938 118.625-19.2917 120.375-26.25 122.125-33.2083 123-39.25 123-44.375 123-48.5417 122.365-51.6042 121.094-53.5625 119.823-55.5208 117.854-56.5 115.188-56.5ZM116.625-63C121.792-63 126.125-62.0521 129.625-60.1562 133.125-58.2604 135.719-55.625 137.406-52.25 139.094-48.875 139.938-44.9583 139.938-40.5 139.938-35 139.021-29.4792 137.188-23.9375 135.354-18.3958 132.823-13.75 129.594-10 126.365-6.25 122.542-3.47917 118.125-1.6875 113.708 0.104166 108.708 0.999999 103.125 0.999999 98.5417 0.999999 94.5104 0.177083 91.0312-1.46875 87.5521-3.11458 84.8229-5.61458 82.8438-8.96875 80.8646-12.3229 79.875-16.4167 79.875-21.25 79.875-26.1667 80.6458-31.3229 82.1875-36.7188 83.7292-42.1146 86.125-46.8646 89.375-50.9688 92.625-55.0729 96.5521-58.1042 101.156-60.0625 105.76-62.0208 110.917-63 116.625-63ZM20.1875-63C22.2292-63 23.9688-62.7917 25.4063-62.375 26.8438-61.9583 28.0833-61.2917 29.125-60.375 30.1667-59.4583 31.0313-58.3854 31.7188-57.1562 32.4063-55.9271 32.9792-54.125 33.4375-51.75 33.8958-49.375 34.2292-46.4688 34.4375-43.0312 34.6458-39.5938 34.75-35.25 34.75-30 34.75-24.5 34.6875-18.7708 34.5625-12.8125L35-12.8125C40.625-19.7708 44.9167-26.5312 47.875-33.0938 50.8333-39.6562 52.3125-45.6042 52.3125-50.9375 52.3125-51.8125 52.2708-52.9792 52.1875-54.4375 52.1042-55.8958 52.0208-57.0417 51.9375-57.875L52.875-62 70.375-62C69.7083-53.2083 66.0938-43.4792 59.5313-32.8125 52.9688-22.1458 44.125-11.0625 33 0.4375L19.375 0.4375C19.2917-5.77083 19.0625-12.7083 18.6875-20.375 18.3542-27.1667 17.9375-33.625 17.4375-39.75 17.2292-42.75 16.9792-45.1042 16.6875-46.8125 16.3125-49.1458 15.8333-50.8958 15.25-52.0625 14.875-52.7292 14.4688-53.2083 14.0313-53.5 13.5938-53.7917 13.1042-53.9375 12.5625-53.9375 11.4375-53.9375 10.3333-53.5521 9.25-52.7812 8.16667-52.0104 6.875-50.8333 5.375-49.25L0.875002-53.6875C4.25-56.8958 7.4375-59.25 10.4375-60.75 13.4375-62.25 16.6875-63 20.1875-63ZM181.938-89.5 189-89.5 173-19.6875C172.333-16.7708 172-14.3333 172-12.375 172-10.75 172.271-9.625 172.812-9 173.354-8.375 174.125-8.0625 175.125-8.0625 176.333-8.0625 177.688-8.63542 179.188-9.78125 180.688-10.9271 182.458-12.6667 184.5-15L189-10.5C184.917-6.33333 181.26-3.375 178.031-1.625 174.802 0.125 171.25 0.999999 167.375 0.999999 162.958 0.999999 159.729-0.083334 157.688-2.25 155.646-4.41667 154.625-7.6875 154.625-12.0625 154.625-14.5208 155.083-17.7917 156-21.875L167.188-70.625C168.104-74.625 168.562-77.6042 168.562-79.5625 168.562-80.4792 168.469-81.1979 168.281-81.7188 168.094-82.2396 167.812-82.6667 167.438-83 167.062-83.3333 166.562-83.5938 165.938-83.7812 165.312-83.9688 164.083-84.1875 162.25-84.4375L163.25-88.5Z" fill-rule="evenodd" transform="matrix(1 0 0 1.00011 1433.35 698.186)"/><text fill="#000000" fill-opacity="0" font-family="Arial,Arial_MSFontService,sans-serif" font-size="90.5" x="0.875002" y="-10.3125"></text><path d="M351.689 24.1735C363.856 27.3818 373.2 34.3089 379.72 44.9547 386.241 55.6005 389.502 68.4443 389.502 83.486 389.502 98.5693 386.252 111.413 379.752 122.017 373.252 132.621 363.898 139.528 351.689 142.736L350.189 137.923C359.814 134.715 366.97 128.382 371.658 118.923 376.345 109.465 378.689 97.4443 378.689 82.861 378.689 68.7776 376.356 57.0797 371.689 47.7672 367.023 38.4547 359.793 32.1943 350.002 28.986ZM242.729 24.1735 244.417 28.986C234.667 32.1943 227.448 38.4547 222.76 47.7672 218.073 57.0797 215.729 68.7776 215.729 82.861 215.729 97.4443 218.073 109.465 222.76 118.923 227.448 128.382 234.604 134.715 244.229 137.923L242.729 142.736C230.521 139.528 221.167 132.621 214.667 122.017 208.167 111.413 204.917 98.5693 204.917 83.486 204.917 68.4443 208.177 55.6005 214.698 44.9547 221.219 34.3089 230.562 27.3818 242.729 24.1735Z" fill-rule="evenodd" transform="matrix(1 0 0 1.00011 1433.35 578.16)"/><path d="M4.375-62 26.1875-62 29.625-16.625C35.875-26.2917 40.2396-33.9896 42.7188-39.7188 45.1979-45.4479 46.75-51.5 47.375-57.875L48.25-62 62.3125-62 66.1875-16.5625C72.2292-25.6875 76.6146-33.1042 79.3438-38.8125 82.0729-44.5208 83.4375-49.2292 83.4375-52.9375 83.4375-54.5208 83.0625-55.7188 82.3125-56.5312 81.5625-57.3438 80.25-57.7917 78.375-57.875L79.25-62 96.875-62 99.0625-57.875C97.1042-52.25 92.8229-44.0521 86.2188-33.2812 79.6146-22.5104 71.7708-11.1042 62.6875 0.9375L52.125 0.9375 50.1875-17.5625C49.6458-22.5625 49.2917-26.3333 49.125-28.875 48.9583-31.4167 48.875-33.4375 48.875-34.9375L48.25-34.9375C43.0417-24.1042 35.7292-12.1458 26.3125 0.9375L14.9375 0.9375 10-47.125C9.70833-50.0417 9.34375-52.1979 8.90625-53.5938 8.46875-54.9896 7.84375-56.0208 7.03125-56.6875 6.21875-57.3542 5.02083-57.75 3.4375-57.875Z" fill-rule="evenodd" transform="matrix(1 0 0 1.00011 1680.14 698.186)"/><text fill="#000000" fill-opacity="0" font-family="Arial,Arial_MSFontService,sans-serif" font-size="62.9375" x="3.4375" y="-6.92969"></text><path d="M31.6875-90.5 40.0625-90.5 72.5625-70.8125 70-66.875 36.5625-82.4375 35.875-82.4375 2.5-66.875 1.08127e-06-70.8125Z" fill-rule="evenodd" transform="matrix(1 0 0 1.00011 1694.27 697.186)"/><text fill="#000000" fill-opacity="0" font-family="Arial,Arial_MSFontService,sans-serif" font-size="23.625" x="1.08127e-06" y="-69.8281"></text><path d="M59.2539-31.3594C56.8164-31.3594 54.6895-30.3398 52.873-28.3008 51.0566-26.2617 49.627-23.3438 48.584-19.5469 47.541-15.75 47.0195-12.4805 47.0195-9.73828 47.0195-7.16016 47.5527-5.25586 48.6191-4.02539 49.6855-2.79492 51.2969-2.17969 53.4531-2.17969 55.75-2.17969 57.7891-3.21094 59.5703-5.27344 61.3516-7.33594 62.7578-10.2246 63.7891-13.9395 64.8203-17.6543 65.3359-20.918 65.3359-23.7305 65.3359-26.2617 64.8438-28.166 63.8594-29.4434 62.875-30.7207 61.3398-31.3594 59.2539-31.3594ZM59.957-34.1719C63.707-34.1719 66.5664-33.1465 68.5352-31.0957 70.5039-29.0449 71.4883-26.1094 71.4883-22.2891 71.4883-19.5703 71.0137-16.6641 70.0645-13.5703 69.1152-10.4766 67.8145-7.875 66.1621-5.76562 64.5098-3.65625 62.5352-2.06836 60.2383-1.00195 57.9414 0.064453 55.3047 0.597656 52.3281 0.597656 48.6953 0.597656 45.877-0.421875 43.873-2.46094 41.8691-4.5 40.8672-7.42969 40.8672-11.25 40.8672-13.125 41.1484-15.293 41.7109-17.7539 42.4375-21.082 43.6562-23.9883 45.3672-26.4727 47.0781-28.957 49.1875-30.8613 51.6953-32.1855 54.2031-33.5098 56.957-34.1719 59.957-34.1719ZM9.28125-34.1719C10.6406-34.1719 11.707-33.9375 12.4805-33.4688 13.2539-33 13.8691-32.2793 14.3262-31.3066 14.7832-30.334 15.1113-28.9863 15.3105-27.2637 15.5098-25.541 15.6738-22.752 15.8027-18.8965 15.9316-15.041 15.9961-10.3242 15.9961-4.74609 18.4336-7.41797 20.5254-9.99609 22.2715-12.4805 24.0176-14.9648 25.4473-17.6074 26.5605-20.4082 27.6738-23.209 28.2305-26.0039 28.2305-28.793 28.2305-29.8477 28.1484-30.8789 27.9844-31.8867L28.3711-33.6094 35.4023-33.6094C34.8633-28.4062 33.3047-23.5078 30.7266-18.9141 28.1484-14.3203 23.2617-7.91016 16.0664 0.316406L10.9688 0.316406C10.7813-5.75391 10.5352-11.5195 10.2305-16.9805 9.97266-21.3867 9.72656-24.3984 9.49219-26.0156 9.21094-27.7734 8.8125-28.9453 8.29688-29.5312 7.92188-29.9297 7.38281-30.1289 6.67969-30.1289 6.11719-30.1289 5.50195-29.9004 4.83399-29.4434 4.16602-28.9863 3.375-28.2891 2.46094-27.3516L0.492189-29.3203C2.10938-30.7734 3.33399-31.793 4.16602-32.3789 4.99805-32.9648 5.82422-33.4102 6.64453-33.7148 7.46484-34.0195 8.34375-34.1719 9.28125-34.1719ZM93.1055-50.2734 95.1797-50.2734 86.5312-11.3555C86.0156-9.03516 85.7578-7.30078 85.7578-6.15234 85.7578-5.21484 85.9102-4.53516 86.2148-4.11328 86.5195-3.69141 87-3.48047 87.6562-3.48047 88.3594-3.48047 89.1094-3.76758 89.9062-4.3418 90.7031-4.91602 91.8281-6.01172 93.2812-7.62891L95.2852-5.66016C93.0117-3.26953 91.1543-1.63477 89.7129-0.755859 88.2715 0.123047 86.6602 0.5625 84.8789 0.5625 83.3555 0.5625 82.1367 0.00585964 81.2227-1.10742 80.3086-2.2207 79.8516-3.64453 79.8516-5.37891 79.8516-6.94922 80.1797-9.22266 80.8359-12.1992L87.1289-40.3594C87.4102-41.6016 87.6094-42.5918 87.7266-43.3301 87.8438-44.0684 87.9023-44.7539 87.9023-45.3867 87.9023-46.0898 87.7734-46.623 87.5156-46.9863 87.2578-47.3496 86.8887-47.6133 86.4082-47.7773 85.9277-47.9414 85.0664-48.0586 83.8242-48.1289L84.2461-49.957Z" fill-rule="evenodd" transform="matrix(1 0 0 1.00011 1746.44 1116.26)"/><text fill="#000000" fill-opacity="0" font-family="Arial,Arial_MSFontService,sans-serif" font-size="50.8711" x="0.492189" y="-5.76123"></text><path d="M299.339 14.093C306.182 15.8977 311.438 19.7942 315.106 25.7825 318.774 31.7708 320.608 38.9954 320.608 47.4563 320.608 55.9407 318.78 63.1653 315.124 69.1301 311.467 75.095 306.206 78.9798 299.339 80.7844L298.495 78.0774C303.909 76.2727 307.934 72.7102 310.571 67.3899 313.208 62.0696 314.526 55.3079 314.526 47.1048 314.526 39.1829 313.214 32.6028 310.589 27.3645 307.964 22.1262 303.897 18.6048 298.389 16.8001ZM194.951 14.093 195.9 16.8001C190.416 18.6048 186.355 22.1262 183.719 27.3645 181.082 32.6028 179.763 39.1829 179.763 47.1048 179.763 55.3079 181.082 62.0696 183.719 67.3899 186.355 72.7102 190.381 76.2727 195.795 78.0774L194.951 80.7844C188.084 78.9798 182.822 75.095 179.166 69.1301 175.51 63.1653 173.681 55.9407 173.681 47.4563 173.681 38.9954 175.515 31.7708 179.183 25.7825 182.851 19.7942 188.107 15.8977 194.951 14.093Z" fill-rule="evenodd" transform="matrix(1 0 0 1.00011 1679.04 1048.25)"/><path d="M21.0938-34.207C24.4688-34.207 28.0078-33.6445 31.7109-32.5195L30.375-26.1211 27.0703-26.1211C26.6484-29.6602 24.5742-31.4297 20.8477-31.4297 18.7148-31.4297 16.9688-30.8262 15.6094-29.6191 14.25-28.4121 13.5703-26.7539 13.5703-24.6445 13.5703-23.1211 14.1738-21.9023 15.3809-20.9883 16.5879-20.0742 18.2461-19.6172 20.3555-19.6172L25.3477-19.6172 24.5391-15.9961 21.0234-15.9961C19.2422-15.9961 17.7773-15.8789 16.6289-15.6445 15.4805-15.4102 14.4023-15.0293 13.3945-14.502 12.3867-13.9746 11.5957-13.4121 11.0215-12.8145 10.4473-12.2168 10.0195-11.543 9.73828-10.793 9.45703-10.043 9.31641-9.1875 9.31641-8.22656 9.31641-6.58594 9.87891-5.33203 11.0039-4.46484 12.1289-3.59766 13.7461-3.16406 15.8555-3.16406 17.707-3.16406 19.4941-3.42773 21.2168-3.95508 22.9395-4.48242 24.8906-5.48438 27.0703-6.96094L28.793-4.21875C26.3555-2.53125 23.959-1.3125 21.6035-0.5625 19.248 0.1875 16.7812 0.5625 14.2031 0.5625 11.8594 0.5625 9.84961 0.169922 8.17383-0.615234 6.49805-1.40039 5.24414-2.44336 4.41211-3.74414 3.58008-5.04492 3.16406-6.48047 3.16406-8.05078 3.16406-10.4648 4.10156-12.5273 5.97656-14.2383 7.85156-15.9492 10.5469-17.1797 14.0625-17.9297L14.1328-18.2812C10.0547-19.6406 8.01563-21.9844 8.01563-25.3125 8.01563-26.8125 8.48438-28.2363 9.42188-29.584 10.3594-30.9316 11.8301-32.0391 13.834-32.9062 15.8379-33.7734 18.2578-34.207 21.0938-34.207Z" fill-rule="evenodd" transform="matrix(1 0 0 1.00011 1876.27 1116.26)"/><text fill="#000000" fill-opacity="0" font-family="Arial,Arial_MSFontService,sans-serif" font-size="34.7695" x="3.16406" y="-3.78369"></text><path d="M15.4497-33.5132C17.244-33.5132 18.7751-33.3105 20.0432-32.905 21.3113-32.4996 22.3421-31.9518 23.1357-31.2617 23.9294-30.5716 24.503-29.7435 24.8567-28.7773 25.2104-27.8112 25.3872-26.7674 25.3872-25.646 25.3872-24.9731 25.3398-24.3477 25.2449-23.7698 25.15-23.1918 24.9861-22.6225 24.7532-22.0618 24.5203-21.5011 24.214-20.936 23.8345-20.3667 23.4549-19.7974 22.9805-19.1935 22.4111-18.5552 21.9798-18.0031 21.4191-17.3647 20.729-16.6401 20.0389-15.9155 19.2841-15.1392 18.4646-14.311 17.6451-13.4829 16.7868-12.6203 15.8896-11.7231 14.9925-10.826 14.1213-9.9375 13.2759-9.05762 12.4305-8.17773 11.6541-7.32373 10.9468-6.49561 10.2394-5.66748 9.66146-4.90837 9.21289-4.21826L18.7881-4.21826C19.599-4.21826 20.2459-4.24845 20.729-4.30884 21.2121-4.36922 21.6132-4.50293 21.9324-4.70996 22.2515-4.91699 22.5233-5.23185 22.7476-5.65454 22.9718-6.07723 23.2306-6.65951 23.5239-7.40137L25.9307-7.40137C25.8444-6.17643 25.7625-4.94287 25.6848-3.70068 25.6072-2.4585 25.5252-1.22493 25.439 0L3.51953 0 3.51953-1.3457C3.93359-2.27734 4.41667-3.19604 4.96875-4.10181 5.52083-5.00757 6.14193-5.92627 6.83203-6.85791 7.52214-7.78955 8.30713-8.75138 9.18701-9.74341 10.0669-10.7354 11.0417-11.7663 12.1113-12.8359 13.7331-14.4577 15.0529-15.8422 16.0708-16.9895 17.0887-18.1368 17.8909-19.159 18.4775-20.0562 19.0641-20.9533 19.4653-21.7814 19.6809-22.5405 19.8966-23.2996 20.0044-24.1105 20.0044-24.9731 20.0044-25.853 19.8793-26.6639 19.6292-27.4058 19.379-28.1476 19.021-28.7773 18.5552-29.2949 18.0894-29.8125 17.4985-30.2179 16.7825-30.5112 16.0665-30.8045 15.2427-30.9512 14.311-30.9512 12.7065-30.9512 11.3608-30.5155 10.2739-29.6443 9.18701-28.773 8.34163-27.5093 7.73779-25.853L4.34766-25.853 4.34766-30.8994C6.55599-31.8138 8.58748-32.478 10.4421-32.8921 12.2968-33.3062 13.966-33.5132 15.4497-33.5132Z" fill-rule="evenodd" transform="matrix(1 0 0 1.00011 1913.15 1089.89)"/><text fill="#000000" fill-opacity="0" font-family="Arial,Arial_MSFontService,sans-serif" font-size="33.5132" x="3.51953" y="-4.18915">2</text><path d="M11.2148-47.9883 25.2773-47.9883 24.8906-46.2656C24-46.0781 23.3613-45.8672 22.9746-45.6328 22.5879-45.3984 22.2422-45.0469 21.9375-44.5781 21.6328-44.1094 21.3164-43.377 20.9883-42.3809 20.6602-41.3848 20.25-39.7617 19.7578-37.5117L13.7461-10.2305C13.4414-8.84766 13.2422-7.75195 13.1484-6.94336 13.0547-6.13477 13.0078-5.40234 13.0078-4.74609 13.0078-3.69141 13.2715-2.94727 13.7988-2.51367 14.3262-2.08008 15.2109-1.81641 16.4531-1.72266L16.0664 0 2.00391 0 2.39063-1.72266C3.28125-1.86328 3.94922-2.0918 4.39453-2.4082 4.83984-2.72461 5.21484-3.16406 5.51953-3.72656 5.82422-4.28906 6.10547-4.97461 6.36328-5.7832 6.62109-6.5918 7.00781-8.15625 7.52344-10.4766L13.5-37.5469C14.0156-39.8906 14.2734-41.7773 14.2734-43.207 14.2734-44.3086 13.998-45.0762 13.4473-45.5098 12.8965-45.9434 12.0234-46.1953 10.8281-46.2656Z" fill-rule="evenodd" transform="matrix(1 0 0 1.00011 1946.47 1116.26)"/><text fill="#000000" fill-opacity="0" font-family="Arial,Arial_MSFontService,sans-serif" font-size="47.9883" x="2.00391" y="-5.99854"></text><path d="M1895.31 942.387C1899.35 958.977 1900.38 972.971 1897.61 973.644L1852.95 984.505C1850.19 985.178 1851.22 999.172 1855.25 1015.76 1851.22 999.172 1845.7 986.268 1842.94 986.94L1794.02 998.838C1791.26 999.51 1785.74 986.606 1781.71 970.016" stroke="#000000" stroke-width="4.00042" stroke-miterlimit="8" fill="none" fill-rule="evenodd"/><path d="M777.695 538.5 780.708 459.161 812.478 531.922Z" stroke="#2F528F" stroke-width="1.33334" stroke-miterlimit="8" fill="#4472C4" fill-rule="evenodd"/><path d="M2014.9 288.854 2092.95 274.339 2028.97 321.342Z" stroke="#2F528F" stroke-width="1.33346" stroke-miterlimit="8" fill="#4472C4" fill-rule="evenodd"/><path d="M1330.64 1071.39 1384.73 1129.51 1310.76 1100.68Z" stroke="#2F528F" stroke-width="1.33343" stroke-miterlimit="8" fill="#4472C4" fill-rule="evenodd"/><path d="M475.989 1280.81 413.634 1329.95 448.432 1258.59Z" stroke="#2F528F" stroke-width="1.33339" stroke-miterlimit="8" fill="#4472C4" fill-rule="evenodd"/><path d="M826.5 801.588C826.5 792.751 833.44 785.587 842 785.587 850.56 785.587 857.5 792.751 857.5 801.588 857.5 810.426 850.56 817.59 842 817.59 833.44 817.59 826.5 810.426 826.5 801.588Z" stroke="#2E75B6" stroke-width="1.33333" stroke-miterlimit="8" fill="#2E75B6" fill-rule="evenodd"/></g></svg>